<?xml version="1.0" standalone="no"?>
<!DOCTYPE svg PUBLIC "-//W3C//DTD SVG 20010904//EN"
 "http://www.w3.org/TR/2001/REC-SVG-20010904/DTD/svg10.dtd">
<svg version="1.0" xmlns="http://www.w3.org/2000/svg"
 width="207.000000pt" height="242.000000pt" viewBox="0 0 207.000000 242.000000"
 preserveAspectRatio="xMidYMid meet">

<g transform="translate(0.000000,242.000000) scale(0.100000,-0.100000)"
fill="#000000" stroke="none">
<path d="M10 1604 c0 -901 -3 -863 71 -1005 118 -227 369 -409 725 -527 206
-69 201 -68 339 -28 311 89 576 242 722 416 58 69 134 215 152 292 8 32 11
298 11 852 l0 806 -1010 0 -1010 0 0 -806z m1988 -36 l-3 -813 -27 -69 c-112
-277 -426 -505 -858 -621 l-90 -24 -90 24 c-432 116 -746 344 -858 621 l-27
69 -3 813 -3 812 981 0 981 0 -3 -812z"/>
<path d="M830 2059 l-75 -20 3 -44 c4 -43 4 -43 -43 -64 -25 -11 -59 -30 -75
-41 l-29 -20 -34 29 -34 30 -68 -62 -68 -63 25 -37 26 -38 -44 -65 c-24 -36
-44 -70 -44 -76 0 -6 -18 -7 -49 -3 l-49 7 -27 -83 c-27 -80 -27 -83 -9 -96
11 -8 29 -16 41 -20 22 -5 23 -10 23 -94 l0 -89 -45 -22 c-25 -12 -45 -29 -45
-37 0 -9 7 -49 17 -88 l17 -73 50 6 51 6 38 -70 37 -70 -45 -27 c-29 -16 -43
-31 -38 -38 16 -27 86 -117 91 -117 3 0 25 12 49 26 l44 26 56 -43 c31 -23 74
-52 97 -65 39 -22 41 -26 41 -70 l0 -47 80 -23 c44 -13 81 -24 82 -24 2 0 11
17 22 37 l19 38 86 -3 86 -3 20 -40 c11 -21 26 -39 33 -39 6 0 44 8 82 18 l70
18 3 45 c3 44 3 44 76 83 l74 39 35 -27 36 -27 66 63 66 63 -25 37 -25 36 44
68 c25 37 45 71 45 76 0 4 21 5 48 2 l47 -6 23 75 c12 42 22 82 22 89 0 8 -16
20 -35 27 l-35 12 0 112 c0 62 -3 122 -6 133 -4 17 2 26 33 44 21 13 39 24 41
25 1 1 -5 18 -13 38 -8 21 -22 53 -29 72 l-15 35 -36 -21 c-20 -12 -37 -20
-39 -18 -2 2 -18 31 -36 65 l-33 60 28 42 27 41 -63 59 -64 60 -32 -25 c-18
-14 -36 -23 -40 -21 -4 2 -39 23 -77 47 l-68 45 6 42 c5 43 5 43 -32 53 -20 6
-58 17 -85 25 l-48 14 -20 -40 c-17 -33 -24 -39 -42 -34 -12 3 -52 6 -88 6
l-66 0 -18 40 c-20 45 -15 45 -115 19z m96 -59 l16 -40 47 5 c25 4 74 2 107
-3 l61 -8 18 33 c20 37 26 38 91 21 l46 -13 -5 -43 c-4 -40 -3 -44 27 -59 17
-8 58 -33 90 -56 49 -33 63 -38 78 -28 10 6 27 17 38 23 17 11 24 8 60 -27 36
-35 39 -41 26 -59 -41 -65 -42 -56 11 -149 l49 -86 32 19 c18 11 34 20 37 20
6 0 29 -79 24 -84 -2 -2 -54 -31 -115 -65 -74 -40 -115 -69 -122 -86 l-12 -25
40 20 c21 11 42 20 45 20 11 0 4 -159 -10 -213 -54 -208 -226 -379 -436 -433
-92 -24 -251 -15 -341 18 -68 25 -168 84 -168 98 0 19 34 18 61 -1 22 -15 29
-17 29 -6 0 26 -22 77 -33 77 -7 0 -73 -34 -147 -74 l-135 -75 -18 22 c-40 49
-40 54 3 78 22 13 40 26 40 31 0 4 -13 29 -29 55 -16 27 -37 67 -46 91 l-17
42 -48 -6 -49 -6 -11 43 c-6 24 -13 50 -15 57 -3 7 14 22 40 34 l45 22 0 77
c0 42 3 90 6 107 6 28 3 32 -35 51 -23 12 -41 25 -41 29 0 5 7 29 16 55 l16
47 49 0 c47 0 49 1 70 43 12 23 37 63 55 88 l33 46 -24 35 -24 35 44 43 c45
44 50 45 92 7 22 -19 22 -19 51 2 17 11 58 34 93 51 64 30 64 30 64 72 0 41 1
42 45 54 67 18 69 17 86 -26z"/>
<path d="M939 1850 c-336 -52 -561 -371 -495 -700 18 -87 59 -188 93 -229 l20
-25 47 30 c69 42 82 83 52 170 -12 36 -25 62 -29 58 -4 -4 -7 -45 -7 -92 0
-69 -3 -87 -17 -98 -31 -23 -42 -16 -73 46 -161 318 13 708 355 795 70 18 182
19 257 4 134 -28 286 -135 355 -250 48 -81 49 -84 12 -99 -28 -12 -30 -15 -14
-26 14 -10 23 -10 52 4 29 14 33 20 28 42 -21 82 -129 215 -228 280 -111 73
-279 110 -408 90z"/>
<path d="M830 1662 l0 -60 65 -57 65 -57 0 61 c0 59 -1 62 -46 103 -85 78 -84
78 -84 10z"/>
<path d="M1075 1688 c-55 -16 -102 -32 -104 -34 -2 -2 3 -12 12 -22 13 -14 17
-38 17 -99 l0 -80 58 -47 57 -47 115 6 c108 7 140 15 140 36 0 5 -13 9 -30 9
-26 0 -30 4 -30 26 0 23 -3 25 -27 20 -89 -22 -101 -27 -106 -47 -8 -29 -31
-19 -35 14 -3 21 2 29 22 37 l26 10 0 125 c0 69 -3 125 -7 124 -5 0 -53 -14
-108 -31z"/>
<path d="M830 1404 c0 -124 3 -161 15 -174 13 -14 11 -19 -10 -45 -24 -30 -25
-30 -31 -7 -6 20 -12 22 -75 22 -38 0 -69 -3 -69 -7 0 -4 10 -38 22 -75 19
-60 25 -68 43 -64 11 3 28 6 37 6 22 0 178 193 178 220 0 35 30 81 61 94 l30
13 -100 87 -101 87 0 -157z"/>
<path d="M1403 1374 c-15 -24 -15 -29 -2 -53 20 -36 71 -41 93 -9 21 29 20 51
-2 71 -28 26 -69 21 -89 -9z"/>
<path d="M993 1314 c-15 -24 -15 -29 -2 -53 28 -49 109 -32 109 24 0 54 -77
75 -107 29z"/>
<path d="M1290 1273 c-19 -1 -63 -5 -96 -9 -53 -5 -63 -9 -73 -30 -14 -31 -15
-240 -1 -249 6 -4 10 -60 10 -136 0 -79 4 -129 10 -129 6 0 10 92 10 255 0
220 2 255 15 255 13 0 15 -34 15 -250 0 -137 3 -250 6 -250 3 0 28 10 55 21
l49 21 0 234 0 234 28 0 c15 0 44 3 66 7 38 6 38 6 15 19 -24 13 -39 14 -109
7z"/>
<path d="M1330 1015 c0 -249 -6 -241 95 -138 l55 55 0 122 0 122 -67 25 c-37
13 -71 26 -75 27 -4 2 -8 -94 -8 -213z"/>
<path d="M931 1094 c-52 -62 -81 -104 -81 -119 0 -18 4 -23 16 -18 13 5 14 -3
8 -58 -3 -35 -10 -86 -14 -112 -7 -46 -6 -49 19 -59 14 -6 68 -13 119 -16 l92
-5 0 130 0 130 -59 49 c-33 27 -60 54 -60 61 -2 26 20 22 59 -13 l40 -36 0 81
0 81 -29 0 c-24 0 -42 -15 -110 -96z"/>
<path d="M728 1009 c-46 -26 -40 -93 9 -105 59 -15 100 66 51 100 -26 18 -36
19 -60 5z"/>
<path d="M805 879 c-16 -10 -30 -22 -30 -26 3 -56 27 -115 41 -100 6 5 26 139
22 142 -2 1 -16 -6 -33 -16z"/>
</g>
</svg>
