<svg width="1055" height="242" xmlns="http://www.w3.org/2000/svg" preserveAspectRatio="xMidYMid meet">
 <g>
  <title>background</title>
  <rect x="-1" y="-1" width="1057" height="244" id="canvas_background" fill="none"/>
 </g>

 <g>
  <title>Layer 1</title>
  <g transform="translate(0,242) scale(0.10000000149011612,-0.10000000149011612) " fill="#000000" id="svg_1">
   <path d="m10,1604c0,-901 -3,-863 71,-1005c118,-227 369,-409 725,-527c206,-69 201,-68 339,-28c311,89 576,242 722,416c58,69 134,215 152,292c8,32 11,298 11,852l0,806l-1010,0l-1010,0l0,-806zm1988,-36l-3,-813l-27,-69c-112,-277 -426,-505 -858,-621l-90,-24l-90,24c-432,116 -746,344 -858,621l-27,69l-3,813l-3,812l981,0l981,0l-3,-812z" id="svg_2"/>
   <path d="m830,2059l-75,-20l3,-44c4,-43 4,-43 -43,-64c-25,-11 -59,-30 -75,-41l-29,-20l-34,29l-34,30l-68,-62l-68,-63l25,-37l26,-38l-44,-65c-24,-36 -44,-70 -44,-76c0,-6 -18,-7 -49,-3l-49,7l-27,-83c-27,-80 -27,-83 -9,-96c11,-8 29,-16 41,-20c22,-5 23,-10 23,-94l0,-89l-45,-22c-25,-12 -45,-29 -45,-37c0,-9 7,-49 17,-88l17,-73l50,6l51,6l38,-70l37,-70l-45,-27c-29,-16 -43,-31 -38,-38c16,-27 86,-117 91,-117c3,0 25,12 49,26l44,26l56,-43c31,-23 74,-52 97,-65c39,-22 41,-26 41,-70l0,-47l80,-23c44,-13 81,-24 82,-24c2,0 11,17 22,37l19,38l86,-3l86,-3l20,-40c11,-21 26,-39 33,-39c6,0 44,8 82,18l70,18l3,45c3,44 3,44 76,83l74,39l35,-27l36,-27l66,63l66,63l-25,37l-25,36l44,68c25,37 45,71 45,76c0,4 21,5 48,2l47,-6l23,75c12,42 22,82 22,89c0,8 -16,20 -35,27l-35,12l0,112c0,62 -3,122 -6,133c-4,17 2,26 33,44c21,13 39,24 41,25c1,1 -5,18 -13,38c-8,21 -22,53 -29,72l-15,35l-36,-21c-20,-12 -37,-20 -39,-18c-2,2 -18,31 -36,65l-33,60l28,42l27,41l-63,59l-64,60l-32,-25c-18,-14 -36,-23 -40,-21c-4,2 -39,23 -77,47l-68,45l6,42c5,43 5,43 -32,53c-20,6 -58,17 -85,25l-48,14l-20,-40c-17,-33 -24,-39 -42,-34c-12,3 -52,6 -88,6l-66,0l-18,40c-20,45 -15,45 -115,19zm96,-59l16,-40l47,5c25,4 74,2 107,-3l61,-8l18,33c20,37 26,38 91,21l46,-13l-5,-43c-4,-40 -3,-44 27,-59c17,-8 58,-33 90,-56c49,-33 63,-38 78,-28c10,6 27,17 38,23c17,11 24,8 60,-27c36,-35 39,-41 26,-59c-41,-65 -42,-56 11,-149l49,-86l32,19c18,11 34,20 37,20c6,0 29,-79 24,-84c-2,-2 -54,-31 -115,-65c-74,-40 -115,-69 -122,-86l-12,-25l40,20c21,11 42,20 45,20c11,0 4,-159 -10,-213c-54,-208 -226,-379 -436,-433c-92,-24 -251,-15 -341,18c-68,25 -168,84 -168,98c0,19 34,18 61,-1c22,-15 29,-17 29,-6c0,26 -22,77 -33,77c-7,0 -73,-34 -147,-74l-135,-75l-18,22c-40,49 -40,54 3,78c22,13 40,26 40,31c0,4 -13,29 -29,55c-16,27 -37,67 -46,91l-17,42l-48,-6l-49,-6l-11,43c-6,24 -13,50 -15,57c-3,7 14,22 40,34l45,22l0,77c0,42 3,90 6,107c6,28 3,32 -35,51c-23,12 -41,25 -41,29c0,5 7,29 16,55l16,47l49,0c47,0 49,1 70,43c12,23 37,63 55,88l33,46l-24,35l-24,35l44,43c45,44 50,45 92,7c22,-19 22,-19 51,2c17,11 58,34 93,51c64,30 64,30 64,72c0,41 1,42 45,54c67,18 69,17 86,-26z" id="svg_3"/>
   <path d="m939,1850c-336,-52 -561,-371 -495,-700c18,-87 59,-188 93,-229l20,-25l47,30c69,42 82,83 52,170c-12,36 -25,62 -29,58c-4,-4 -7,-45 -7,-92c0,-69 -3,-87 -17,-98c-31,-23 -42,-16 -73,46c-161,318 13,708 355,795c70,18 182,19 257,4c134,-28 286,-135 355,-250c48,-81 49,-84 12,-99c-28,-12 -30,-15 -14,-26c14,-10 23,-10 52,4c29,14 33,20 28,42c-21,82 -129,215 -228,280c-111,73 -279,110 -408,90z" id="svg_4"/>
   <path d="m830,1662l0,-60l65,-57l65,-57l0,61c0,59 -1,62 -46,103c-85,78 -84,78 -84,10z" id="svg_5"/>
   <path d="m1075,1688c-55,-16 -102,-32 -104,-34c-2,-2 3,-12 12,-22c13,-14 17,-38 17,-99l0,-80l58,-47l57,-47l115,6c108,7 140,15 140,36c0,5 -13,9 -30,9c-26,0 -30,4 -30,26c0,23 -3,25 -27,20c-89,-22 -101,-27 -106,-47c-8,-29 -31,-19 -35,14c-3,21 2,29 22,37l26,10l0,125c0,69 -3,125 -7,124c-5,0 -53,-14 -108,-31z" id="svg_6"/>
   <path d="m830,1404c0,-124 3,-161 15,-174c13,-14 11,-19 -10,-45c-24,-30 -25,-30 -31,-7c-6,20 -12,22 -75,22c-38,0 -69,-3 -69,-7c0,-4 10,-38 22,-75c19,-60 25,-68 43,-64c11,3 28,6 37,6c22,0 178,193 178,220c0,35 30,81 61,94l30,13l-100,87l-101,87l0,-157z" id="svg_7"/>
   <path d="m1403,1374c-15,-24 -15,-29 -2,-53c20,-36 71,-41 93,-9c21,29 20,51 -2,71c-28,26 -69,21 -89,-9z" id="svg_8"/>
   <path d="m993,1314c-15,-24 -15,-29 -2,-53c28,-49 109,-32 109,24c0,54 -77,75 -107,29z" id="svg_9"/>
   <path d="m1290,1273c-19,-1 -63,-5 -96,-9c-53,-5 -63,-9 -73,-30c-14,-31 -15,-240 -1,-249c6,-4 10,-60 10,-136c0,-79 4,-129 10,-129c6,0 10,92 10,255c0,220 2,255 15,255c13,0 15,-34 15,-250c0,-137 3,-250 6,-250c3,0 28,10 55,21l49,21l0,234l0,234l28,0c15,0 44,3 66,7c38,6 38,6 15,19c-24,13 -39,14 -109,7z" id="svg_10"/>
   <path d="m1330,1015c0,-249 -6,-241 95,-138l55,55l0,122l0,122l-67,25c-37,13 -71,26 -75,27c-4,2 -8,-94 -8,-213z" id="svg_11"/>
   <path d="m931,1094c-52,-62 -81,-104 -81,-119c0,-18 4,-23 16,-18c13,5 14,-3 8,-58c-3,-35 -10,-86 -14,-112c-7,-46 -6,-49 19,-59c14,-6 68,-13 119,-16l92,-5l0,130l0,130l-59,49c-33,27 -60,54 -60,61c-2,26 20,22 59,-13l40,-36l0,81l0,81l-29,0c-24,0 -42,-15 -110,-96z" id="svg_12"/>
   <path d="m728,1009c-46,-26 -40,-93 9,-105c59,-15 100,66 51,100c-26,18 -36,19 -60,5z" id="svg_13"/>
   <path d="m805,879c-16,-10 -30,-22 -30,-26c3,-56 27,-115 41,-100c6,5 26,139 22,142c-2,1 -16,-6 -33,-16z" id="svg_14"/>
   <path d="m10280,2137c0,-21 34,-47 62,-47c25,0 58,27 58,48c0,17 -15,15 -30,-3c-7,-8 -20,-15 -30,-15c-10,0 -23,7 -30,15c-15,19 -30,19 -30,2z" id="svg_15"/>
   <path d="m2555,2013c-9,-97 -23,-142 -51,-170c-19,-19 -24,-34 -24,-73c0,-43 3,-50 20,-50c17,0 20,7 20,40l0,40l105,0l105,0l0,-40c0,-29 4,-40 15,-40c11,0 15,13 15,54c0,39 -4,55 -15,60c-12,4 -15,28 -15,126l0,120l-84,0l-84,0l-7,-67zm135,-78l0,-105l-71,0c-64,0 -70,2 -64,18c17,39 35,119 35,154l0,38l50,0l50,0l0,-105z" id="svg_16"/>
   <path d="m2860,1940l0,-140l75,0c59,0 75,3 75,15c0,10 -15,15 -57,17l-58,3l-3,43l-3,42l55,0c49,0 56,2 56,20c0,18 -7,20 -55,20l-55,0l0,40l0,40l55,0c48,0 55,2 55,20c0,18 -7,20 -70,20l-70,0l0,-140z" id="svg_17"/>
   <path d="m3100,1940c0,-133 1,-140 20,-140c19,0 20,7 20,120l0,120l75,0l75,0l0,-120c0,-100 3,-120 15,-120c13,0 15,22 15,140l0,140l-110,0l-110,0l0,-140z" id="svg_18"/>
   <path d="m3511,2058c-5,-13 -28,-70 -51,-128c-23,-58 -44,-111 -47,-117c-3,-8 3,-13 14,-13c14,0 25,12 36,40l15,40l57,0l57,0l15,-40c11,-28 22,-40 36,-40c11,0 17,5 14,13c-59,150 -114,267 -124,267c-7,0 -17,-10 -22,-22zm53,-115c7,-21 4,-23 -28,-23c-41,0 -42,5 -20,58l15,37l13,-25c8,-14 17,-35 20,-47z" id="svg_19"/>
   <path d="m3748,2074c-5,-4 -8,-67 -8,-141c0,-126 1,-133 20,-133c18,0 20,7 20,60l0,60l40,0c75,0 116,75 71,131c-14,18 -31,23 -77,27c-32,2 -62,0 -66,-4zm112,-49c7,-8 10,-25 6,-40c-5,-21 -12,-25 -46,-25c-40,0 -40,0 -40,40c0,39 1,40 34,40c18,0 39,-7 46,-15z" id="svg_20"/>
   <path d="m3975,2070c-11,-19 6,-30 46,-30l39,0l0,-120c0,-113 1,-120 20,-120c19,0 20,7 20,120l0,120l45,0c38,0 45,3 45,20c0,19 -7,20 -104,20c-59,0 -108,-4 -111,-10z" id="svg_21"/>
   <path d="m4313,1947c-29,-73 -53,-136 -53,-140c0,-4 7,-7 16,-7c9,0 22,17 31,40l16,40l57,0l58,0l16,-40c11,-27 22,-40 35,-40c21,0 23,-7 -84,248c-8,17 -20,32 -27,32c-7,0 -36,-58 -65,-133zm92,11l15,-38l-39,0l-40,0l16,46c17,50 24,48 48,-8z" id="svg_22"/>
   <path d="m4590,1940c0,-133 1,-140 20,-140c19,0 20,7 20,108l1,107l22,-30c12,-16 31,-40 43,-54l20,-24l40,54l39,54l3,-108c2,-86 6,-107 17,-107c13,0 15,24 15,140c0,164 -5,170 -69,85c-23,-30 -45,-55 -49,-55c-4,0 -25,25 -46,55c-23,32 -47,55 -58,55c-17,0 -18,-11 -18,-140z" id="svg_23"/>
   <path d="m4950,1940l0,-140l75,0c59,0 75,3 75,15c0,10 -15,15 -57,17l-58,3l-3,43l-3,42l55,0c49,0 56,2 56,20c0,18 -7,20 -55,20l-55,0l0,40l0,40l55,0c48,0 55,2 55,20c0,18 -7,20 -70,20l-70,0l0,-140z" id="svg_24"/>
   <path d="m5190,1940c0,-133 1,-140 20,-140c18,0 20,7 20,60l0,60l75,0l75,0l0,-60c0,-47 3,-60 15,-60c13,0 15,22 15,140c0,118 -2,140 -15,140c-12,0 -15,-13 -15,-60l0,-60l-75,0l-75,0l0,60c0,53 -2,60 -20,60c-19,0 -20,-7 -20,-140z" id="svg_25"/>
   <path d="m5505,2070c-11,-19 6,-30 46,-30l39,0l0,-120c0,-113 1,-120 20,-120c19,0 20,7 20,120l0,120l45,0c38,0 45,3 45,20c0,19 -7,20 -104,20c-59,0 -108,-4 -111,-10z" id="svg_26"/>
   <path d="m5970,1940c0,-177 5,-179 115,-36l80,104l3,-104c2,-96 4,-104 22,-104c19,0 20,7 20,140c0,116 -3,140 -14,140c-8,0 -52,-48 -98,-106l-83,-107l-3,107c-2,98 -4,106 -22,106c-19,0 -20,-7 -20,-140z" id="svg_27"/>
   <path d="m6320,1940c0,-133 1,-140 20,-140c18,0 20,7 20,60l0,60l70,0l70,0l0,-60c0,-53 2,-60 20,-60c19,0 20,7 20,141c0,128 -2,140 -17,137c-14,-2 -19,-15 -21,-61l-3,-57l-69,0l-70,0l0,60c0,53 -2,60 -20,60c-19,0 -20,-7 -20,-140z" id="svg_28"/>
   <path d="m6657,2073c-4,-3 -7,-66 -7,-140l0,-133l64,0c49,0 69,5 90,21c36,28 36,80 0,108c-25,20 -26,22 -10,39c23,26 20,59 -9,87c-19,20 -34,25 -73,25c-27,0 -52,-3 -55,-7zm111,-61c5,-32 -15,-52 -49,-52c-27,0 -29,3 -29,41l0,40l38,-3c30,-2 38,-7 40,-26zm10,-101c8,-5 12,-21 10,-37c-2,-22 -10,-30 -35,-37c-48,-14 -63,-4 -63,43c0,40 0,40 38,40c20,0 43,-4 50,-9z" id="svg_29"/>
   <path d="m6927,2073c-4,-3 -7,-66 -7,-140l0,-133l80,0c63,0 80,3 80,15c0,10 -15,15 -57,17l-58,3l-3,43l-3,42l55,0c49,0 56,2 56,20c0,18 -7,20 -55,20l-55,0l0,40l0,40l55,0c48,0 55,2 55,20c0,18 -7,20 -68,20c-38,0 -72,-3 -75,-7z" id="svg_30"/>
   <path d="m7250,2073c-23,-9 -60,-45 -76,-75c-30,-58 -7,-144 48,-178c59,-36 178,-21 178,23c0,14 -4,17 -17,12c-63,-25 -76,-27 -114,-16c-69,21 -93,111 -44,169c30,36 73,46 125,28c37,-13 40,-12 40,5c0,31 -88,51 -140,32z" id="svg_31"/>
   <path d="m7472,2063c2,-13 15,-19 46,-21l42,-3l0,-120c0,-112 1,-119 20,-119c19,0 20,7 20,120l0,120l45,0c38,0 45,3 45,20c0,19 -7,20 -111,20c-100,0 -110,-2 -107,-17z" id="svg_32"/>
   <path d="m7780,1940c0,-178 5,-179 115,-35l80,106l3,-106c2,-97 4,-105 22,-105c19,0 20,7 20,141c0,127 -2,140 -17,137c-10,-2 -53,-50 -98,-107l-80,-103l-3,106c-2,98 -4,106 -22,106c-19,0 -20,-7 -20,-140z" id="svg_33"/>
   <path d="m8130,1941l0,-141l110,0l110,0l0,-40c0,-29 4,-40 15,-40c11,0 15,13 15,54c0,39 -4,55 -15,60c-12,4 -15,28 -15,126c0,113 -1,120 -20,120c-19,0 -20,-7 -20,-125l0,-125l-70,0l-69,0l-3,122c-3,108 -5,123 -20,126c-16,3 -18,-9 -18,-137z" id="svg_34"/>
   <path d="m8470,1939c0,-127 2,-140 17,-137c10,2 53,50 98,107l80,103l3,-106c2,-98 4,-106 23,-106c19,0 19,6 17,137c-3,113 -6,138 -18,141c-9,1 -47,-39 -95,-103l-80,-106l-3,106c-2,97 -4,105 -22,105c-19,0 -20,-7 -20,-141z" id="svg_35"/>
   <path d="m8873,2060c-53,-32 -69,-69 -65,-154c1,-18 16,-42 41,-67c36,-36 43,-39 96,-39c53,0 60,3 96,39c39,39 45,58 40,126c-5,63 -66,115 -136,115c-22,0 -54,-9 -72,-20zm134,-36c12,-7 28,-32 35,-55c10,-37 10,-46 -8,-78c-39,-73 -126,-79 -171,-12c-27,40 -28,59 -8,107c24,59 94,76 152,38z" id="svg_36"/>
   <path d="m9190,1940c0,-118 2,-140 15,-140c12,0 15,13 15,60l0,60l75,0l75,0l0,-60c0,-53 2,-60 20,-60c19,0 20,7 20,140c0,133 -1,140 -20,140c-18,0 -20,-7 -20,-60l0,-60l-75,0l-75,0l0,60c0,47 -3,60 -15,60c-13,0 -15,-22 -15,-140z" id="svg_37"/>
   <path d="m9520,1940c0,-133 1,-140 20,-140c18,0 20,7 20,60l0,60l70,0l70,0l0,-60c0,-53 2,-60 20,-60c19,0 20,7 20,141c0,128 -2,140 -17,137c-14,-2 -19,-15 -21,-61l-3,-57l-69,0l-70,0l0,60c0,53 -2,60 -20,60c-19,0 -20,-7 -20,-140z" id="svg_38"/>
   <path d="m9924,2070c-32,-13 -72,-67 -80,-106c-9,-50 19,-118 60,-144c46,-28 124,-27 160,1c80,63 73,199 -13,244c-32,16 -93,19 -127,5zm123,-46c30,-19 44,-74 32,-120c-30,-105 -182,-88 -195,22c-11,94 83,150 163,98z" id="svg_39"/>
   <path d="m10220,1940c0,-178 5,-180 115,-35l80,105l3,-105c2,-97 4,-105 22,-105c19,0 20,7 20,141c0,127 -2,140 -17,137c-9,-2 -53,-50 -98,-107l-80,-104l-3,106c-2,99 -4,107 -22,107c-19,0 -20,-7 -20,-140z" id="svg_40"/>
   <path d="m6792,1578c23,-34 90,-37 112,-6c15,21 15,23 -1,27c-9,2 -19,-2 -21,-8c-5,-14 -62,-15 -62,-1c0,6 -10,10 -21,10c-20,0 -20,-2 -7,-22z" id="svg_41"/>
   <path d="m3675,1525c-128,-46 -113,-246 21,-271c91,-17 164,45 164,139c0,105 -87,168 -185,132zm114,-51c75,-63 33,-184 -64,-184c-51,0 -80,20 -95,65c-16,47 -5,89 32,120c39,33 87,33 127,-1z" id="svg_42"/>
   <path d="m6459,1531c-50,-16 -71,-33 -91,-78c-55,-126 60,-242 187,-189c48,20 75,68 75,133c0,44 -5,58 -31,87c-17,20 -47,40 -67,46c-41,11 -38,11 -73,1zm90,-47c31,-22 53,-77 45,-112c-11,-47 -52,-82 -97,-82c-49,0 -73,13 -92,50c-25,49 -19,88 19,126c39,39 85,45 125,18z" id="svg_43"/>
   <path d="m7664,1529c-18,-5 -46,-25 -63,-44c-26,-30 -31,-44 -31,-89c0,-69 30,-115 86,-135c55,-19 109,-8 150,33c102,102 -2,276 -142,235zm105,-55c52,-44 51,-132 -3,-169c-34,-24 -99,-19 -128,10c-94,94 30,244 131,159z" id="svg_44"/>
   <path d="m9371,1514c-11,-14 -23,-35 -27,-47c-8,-29 -34,-57 -51,-57c-9,0 -13,16 -13,60c0,54 -2,60 -20,60c-20,0 -20,-5 -18,-137c3,-122 5,-138 21,-141c15,-3 17,5 17,57c0,54 2,61 19,61c24,0 44,-19 77,-76c16,-28 33,-44 45,-44c10,0 19,2 19,5c0,11 -67,110 -82,122c-13,11 -12,19 11,68c17,37 31,55 43,55c22,0 24,26 2,34c-22,8 -20,9 -43,-20z" id="svg_45"/>
   <path d="m2510,1390c0,-77 4,-140 9,-140c11,0 50,44 121,139l55,73l5,-104c4,-88 8,-103 23,-106c15,-3 17,9 17,137c0,178 -5,180 -115,35l-80,-105l-3,106c-2,84 -6,105 -17,105c-13,0 -15,-24 -15,-140z" id="svg_46"/>
   <path d="m3012,1393c3,-122 5,-138 21,-141c15,-3 17,8 17,123l0,126l73,-3l72,-3l3,-122c2,-100 5,-123 17,-123c13,0 15,24 15,140l0,140l-110,0l-111,0l3,-137z" id="svg_47"/>
   <path d="m3342,1393c3,-120 5,-138 20,-141c14,-3 17,7 20,60l3,63l42,3c73,5 105,71 62,126c-18,23 -27,26 -85,26l-65,0l3,-137zm109,97c21,-12 25,-50 7,-68c-7,-7 -27,-12 -45,-12c-32,0 -33,1 -33,45c0,42 2,45 26,45c14,0 34,-5 45,-10z" id="svg_48"/>
   <path d="m3970,1390c0,-118 2,-140 15,-140c12,0 15,18 15,105c0,58 3,105 8,105c4,0 23,-23 43,-51l37,-50l38,53l39,53l5,-105c4,-89 8,-105 23,-108c15,-3 17,9 17,137c0,131 -1,141 -19,141c-11,0 -36,-23 -60,-55c-23,-30 -43,-55 -45,-55c-1,0 -20,25 -42,55c-21,30 -47,55 -56,55c-16,0 -18,-13 -18,-140z" id="svg_49"/>
   <path d="m4320,1390l0,-140l44,0c86,0 126,27 126,88c0,41 -35,70 -90,74l-45,3l-3,58c-2,42 -7,57 -17,57c-12,0 -15,-24 -15,-140zm111,-20c21,-12 25,-50 7,-68c-7,-7 -29,-12 -50,-12c-37,0 -38,1 -38,38c0,21 3,42 7,45c10,10 52,8 74,-3z" id="svg_50"/>
   <path d="m4532,1393c3,-122 5,-138 21,-141c15,-3 17,9 17,137c0,135 -1,141 -20,141c-20,0 -20,-5 -18,-137z" id="svg_51"/>
   <path d="m4682,1393l3,-138l165,0l165,0l3,138c2,132 2,137 -18,137c-19,0 -20,-6 -20,-120l0,-120l-55,0l-55,0l0,120c0,113 -1,120 -20,120c-19,0 -20,-7 -20,-120l0,-120l-55,0l-55,0l0,120c0,114 -1,120 -20,120c-20,0 -20,-5 -18,-137z" id="svg_52"/>
   <path d="m5140,1426c0,-118 -4,-136 -31,-136c-12,0 -19,-7 -19,-20c0,-26 30,-26 61,-1c22,18 24,28 27,125l4,106l59,0l58,0l3,-122c3,-108 5,-123 21,-126c15,-3 17,9 17,137l0,141l-100,0l-100,0l0,-104z" id="svg_53"/>
   <path d="m5450,1390l0,-140l75,0c68,0 75,2 75,20c0,18 -7,20 -55,20l-55,0l0,45l0,45l50,0c38,0 50,4 50,15c0,11 -12,15 -50,15l-50,0l0,45l0,45l55,0c42,0 55,3 55,15c0,12 -15,15 -75,15l-75,0l0,-140z" id="svg_54"/>
   <path d="m5700,1390c0,-116 3,-140 15,-140c10,0 15,16 17,63l3,62l73,3l72,3l0,-66c0,-58 2,-66 18,-63c15,3 17,19 20,141c2,132 2,137 -18,137c-18,0 -20,-6 -20,-60l0,-60l-75,0l-75,0l0,60c0,47 -3,60 -15,60c-13,0 -15,-22 -15,-140z" id="svg_55"/>
   <path d="m6030,1389c0,-128 2,-140 18,-137c14,3 18,16 20,66l3,63l72,-3l72,-3l3,-62c2,-47 7,-63 17,-63c12,0 15,24 15,140c0,116 -3,140 -15,140c-10,0 -15,-15 -17,-57l-3,-58l-72,-3l-73,-3l0,61c0,53 -2,60 -20,60c-19,0 -20,-7 -20,-141z" id="svg_56"/>
   <path d="m6732,1393c2,-113 6,-138 18,-138c8,0 50,47 95,104l80,103l5,-103c4,-89 8,-104 23,-107c15,-3 17,9 17,137c0,178 -5,180 -115,36l-80,-105l-3,105c-2,97 -4,105 -23,105c-19,0 -19,-6 -17,-137z" id="svg_57"/>
   <path d="m7242,1393c3,-122 5,-138 21,-141c15,-3 17,8 17,122l0,126l75,0l75,0l0,-125c0,-104 2,-125 15,-125c13,0 15,22 15,140l0,140l-110,0l-111,0l3,-137z" id="svg_58"/>
   <path d="m7960,1426c0,-118 -4,-136 -31,-136c-12,0 -19,-7 -19,-20c0,-26 30,-26 61,-1c21,17 24,28 27,125l4,106l59,0l58,0l3,-122c3,-108 5,-123 21,-126c15,-3 17,9 17,137l0,141l-100,0l-100,0l0,-104z" id="svg_59"/>
   <path d="m8270,1390c0,-115 3,-140 14,-140c8,0 52,48 98,107l83,108l3,-108c2,-96 5,-108 20,-105c15,3 17,20 20,141c3,176 -2,177 -116,31l-82,-107l0,107c0,99 -1,106 -20,106c-19,0 -20,-7 -20,-140z" id="svg_60"/>
   <path d="m8600,1516c0,-10 14,-16 43,-18l42,-3l3,-122c2,-100 5,-123 17,-123c12,0 15,22 15,125l0,125l45,0c33,0 45,4 45,15c0,12 -18,15 -105,15c-85,0 -105,-3 -105,-14z" id="svg_61"/>
   <path d="m8902,1393c3,-114 6,-138 18,-138c8,0 51,47 95,103l80,104l5,-104c4,-88 8,-103 23,-106c15,-3 17,9 17,137c0,178 -5,180 -115,35l-80,-105l-3,105c-2,98 -4,106 -23,106c-19,0 -19,-6 -17,-137z" id="svg_62"/>
   <path d="m9530,1390c0,-106 3,-140 13,-140c6,0 48,47 92,105c44,58 83,105 87,105c5,0 8,-47 8,-105c0,-87 3,-105 15,-105c13,0 15,22 15,141c0,127 -2,140 -17,137c-10,-2 -53,-50 -98,-107l-80,-103l-3,106c-2,85 -6,106 -17,106c-13,0 -15,-24 -15,-140z" id="svg_63"/>
   <path d="m2507,983c-4,-3 -7,-66 -7,-140l0,-133l35,0l35,0l0,115l0,115l65,0c63,0 65,1 65,25c0,25 0,25 -93,25c-52,0 -97,-3 -100,-7z" id="svg_64"/>
   <path d="m2860,972c-23,-12 -43,-35 -58,-64c-31,-62 -23,-109 28,-160c35,-35 42,-38 96,-38c104,0 161,57 152,152c-10,103 -122,160 -218,110zm130,-62c42,-42 32,-109 -21,-139c-77,-43 -155,61 -98,133c26,33 88,37 119,6z" id="svg_65"/>
   <path d="m3190,851l0,-141l30,0c30,0 30,1 30,54l0,53l52,5c38,4 57,12 70,28c25,31 23,74 -6,107c-21,25 -31,28 -100,31l-76,4l0,-141zm118,80c8,-4 12,-19 10,-32c-2,-19 -10,-25 -35,-27c-32,-3 -33,-2 -33,32c0,31 3,36 23,36c12,0 28,-4 35,-9z" id="svg_66"/>
   <path d="m3560,972c-71,-35 -98,-116 -63,-189c23,-49 66,-73 131,-73c66,0 103,20 132,73c53,93 -19,207 -130,207c-19,0 -51,-8 -70,-18zm127,-64c28,-26 31,-86 6,-117c-10,-12 -35,-24 -55,-27c-30,-5 -41,-2 -62,19c-33,33 -36,97 -6,127c28,28 87,27 117,-2z" id="svg_67"/>
   <path d="m3930,933c0,-75 -16,-130 -46,-160c-19,-19 -24,-34 -24,-78c0,-54 0,-55 30,-55c28,0 30,3 30,35l0,35l90,0l90,0l0,-35c0,-33 2,-35 35,-35l35,0l0,55c0,37 -5,57 -15,62c-11,6 -15,34 -17,118l-3,110l-102,3l-103,3l0,-58zm140,-83l0,-90l-60,0l-59,0l19,43c11,23 20,63 20,90l0,47l40,0l40,0l0,-90z" id="svg_68"/>
   <path d="m4333,973c-4,-10 -26,-69 -50,-131c-24,-62 -43,-117 -43,-122c0,-6 14,-10 30,-10c23,0 33,6 40,25c9,23 15,25 70,25c55,0 61,-2 70,-25c8,-20 16,-25 44,-25l35,0l-54,130c-30,72 -57,135 -60,140c-11,18 -75,12 -82,-7zm70,-118l16,-45l-40,0c-21,0 -39,1 -39,3c0,18 34,96 40,92c4,-3 15,-25 23,-50z" id="svg_69"/>
   <path d="m4780,850l0,-140l30,0l29,0l3,86l3,86l30,-41c17,-22 35,-41 40,-41c6,0 24,17 42,37l32,38l1,-82l0,-83l35,0l36,0l-3,138l-3,137l-26,3c-22,3 -34,-6 -65,-47c-22,-28 -42,-50 -46,-51c-3,0 -25,23 -48,50c-29,35 -49,50 -66,50l-24,0l0,-140z" id="svg_70"/>
   <path d="m5232,970c-68,-42 -92,-132 -52,-197c26,-43 68,-63 134,-63c47,0 60,4 90,30c61,54 70,128 25,192c-41,57 -135,75 -197,38zm137,-66c44,-55 17,-130 -50,-140c-28,-5 -41,-1 -62,17c-25,23 -31,40 -28,87c3,61 100,86 140,36z" id="svg_71"/>
   <path d="m5630,972c-98,-49 -108,-187 -17,-242c35,-22 118,-27 161,-10c20,7 26,17 26,39l0,30l-35,-15c-44,-18 -69,-18 -105,1c-50,26 -57,94 -13,133c21,19 34,23 72,20c25,-3 54,-8 64,-12c14,-7 17,-3 17,22c0,25 -6,32 -31,41c-46,16 -99,13 -139,-7z" id="svg_72"/>
   <path d="m5910,850l0,-140l30,0c30,0 30,1 30,55c0,41 4,57 15,62c22,8 50,-21 70,-72c15,-41 20,-45 51,-45c19,0 34,2 34,5c0,15 -49,112 -62,123c-14,11 -13,17 4,52c11,22 26,40 34,40c9,0 14,11 14,30c0,25 -4,30 -23,30c-34,0 -55,-20 -69,-65c-11,-32 -18,-41 -40,-43c-28,-3 -28,-2 -28,52c0,56 0,56 -30,56l-30,0l0,-140z" id="svg_73"/>
   <path d="m6238,984c-5,-4 -8,-67 -8,-141l0,-133l84,0c69,0 88,4 110,21c35,27 36,81 2,112c-20,19 -21,24 -10,35c21,19 17,66 -7,88c-15,14 -40,20 -92,22c-40,2 -75,0 -79,-4zm116,-57c25,-19 10,-47 -25,-47c-26,0 -29,4 -29,30c0,33 22,40 54,17zm4,-103c18,-5 22,-13 20,-33c-3,-22 -8,-26 -40,-29c-37,-3 -38,-3 -38,32c0,38 9,43 58,30z" id="svg_74"/>
   <path d="m6560,850l0,-140l80,0c73,0 83,3 105,25c17,16 25,35 25,58c0,47 -34,76 -98,84l-52,6l0,53c0,53 0,54 -30,54l-30,0l0,-140zm118,-26c18,-5 22,-13 20,-33c-3,-22 -8,-26 -40,-29c-36,-3 -38,-2 -38,26c0,42 10,48 58,36z" id="svg_75"/>
   <path d="m6817,983c-4,-3 -7,-66 -7,-140l0,-133l35,0l35,0l0,140l0,140l-28,0c-16,0 -32,-3 -35,-7z" id="svg_76"/>
  </g>
 </g>
</svg>